<svg width="32" height="40" viewBox="0 0 32 40" fill="none" xmlns="http://www.w3.org/2000/svg">
<path d="M28.5714 15.7143C28.5714 12.3044 27.2168 9.03409 24.8057 6.62291C22.3945 4.21173 19.1242 2.85714 15.7143 2.85714C12.3044 2.85714 9.03409 4.21173 6.62291 6.62291C4.21173 9.03409 2.85714 12.3044 2.85714 15.7143C2.85714 20.9886 7.07714 27.8629 15.7143 36.0971C24.3514 27.8629 28.5714 20.9886 28.5714 15.7143ZM15.7143 40C5.23714 30.4771 0 22.38 0 15.7143C0 11.5466 1.65561 7.54961 4.60261 4.60261C7.54961 1.65561 11.5466 0 15.7143 0C19.882 0 23.879 1.65561 26.826 4.60261C29.773 7.54961 31.4286 11.5466 31.4286 15.7143C31.4286 22.38 26.1914 30.4771 15.7143 40Z" fill="white"/>
<path d="M15.7143 19.9999C16.8509 19.9999 17.941 19.5483 18.7447 18.7446C19.5485 17.9409 20 16.8508 20 15.7141C20 14.5775 19.5485 13.4874 18.7447 12.6837C17.941 11.88 16.8509 11.4284 15.7143 11.4284C14.5776 11.4284 13.4875 11.88 12.6838 12.6837C11.8801 13.4874 11.4286 14.5775 11.4286 15.7141C11.4286 16.8508 11.8801 17.9409 12.6838 18.7446C13.4875 19.5483 14.5776 19.9999 15.7143 19.9999V19.9999ZM15.7143 22.857C13.8199 22.857 12.0031 22.1045 10.6635 20.7649C9.32396 19.4254 8.57141 17.6085 8.57141 15.7141C8.57141 13.8197 9.32396 12.0029 10.6635 10.6634C12.0031 9.32384 13.8199 8.57129 15.7143 8.57129C17.6087 8.57129 19.4255 9.32384 20.765 10.6634C22.1046 12.0029 22.8571 13.8197 22.8571 15.7141C22.8571 17.6085 22.1046 19.4254 20.765 20.7649C19.4255 22.1045 17.6087 22.857 15.7143 22.857Z" fill="white"/>
</svg>
