<svg width="43" height="43" viewBox="0 0 43 43" fill="none" xmlns="http://www.w3.org/2000/svg">
<path fill-rule="evenodd" clip-rule="evenodd" d="M21.5967 42.5641C33.3505 42.5641 42.8788 33.0358 42.8788 21.282C42.8788 9.5283 33.3505 0 21.5967 0C9.84299 0 0.314697 9.5283 0.314697 21.282C0.314697 33.0358 9.84299 42.5641 21.5967 42.5641ZM18.1708 21.2821C18.1708 19.3971 19.709 17.8588 21.594 17.8588C23.4789 17.8588 25.0172 19.3971 25.0172 21.2821C25.0172 23.1671 23.4789 24.7054 21.594 24.7054C19.709 24.7054 18.1708 23.1671 18.1708 21.2821ZM31.8614 20.7635C31.8612 20.9362 31.8611 21.1091 31.8611 21.2821C31.8611 21.4756 31.8613 21.6689 31.8616 21.8619C31.8634 23.0834 31.8652 24.2976 31.7943 25.5195C31.7147 27.163 31.3423 28.6192 30.1379 29.8236C28.936 31.0255 27.4774 31.4004 25.8338 31.48C24.5915 31.5499 23.3571 31.5485 22.115 31.5472C21.9424 31.547 21.7696 31.5468 21.5965 31.5468C21.4239 31.5468 21.2514 31.547 21.079 31.5472C19.8386 31.5485 18.6039 31.5499 17.3593 31.48C15.7157 31.4004 14.2596 31.028 13.0552 29.8236C11.8534 28.6217 11.4784 27.163 11.3988 25.5195C11.3289 24.2771 11.3303 23.0407 11.3317 21.7997C11.3319 21.6273 11.332 21.4547 11.332 21.2821C11.332 21.1094 11.3319 20.9369 11.3317 20.7645C11.3303 19.524 11.3289 18.2893 11.3988 17.0447C11.4784 15.4011 11.8508 13.945 13.0552 12.7406C14.2571 11.5387 15.7157 11.1638 17.3593 11.0842C18.6016 11.0143 19.8359 11.0156 21.078 11.017C21.2507 11.0172 21.4235 11.0174 21.5965 11.0174C21.7692 11.0174 21.9417 11.0172 22.1141 11.017C23.3546 11.0156 24.5893 11.0143 25.8338 11.0842C27.4774 11.1638 28.9335 11.5362 30.1379 12.7406C31.3397 13.9425 31.7147 15.4011 31.7943 17.0447C31.8642 18.287 31.8628 19.5214 31.8614 20.7635ZM16.3269 21.2821C16.3269 24.1969 18.6792 26.5493 21.594 26.5493C24.5087 26.5493 26.8611 24.1969 26.8611 21.2821C26.8611 18.3673 24.5087 16.0149 21.594 16.0149C18.6792 16.0149 16.3269 18.3673 16.3269 21.2821ZM25.8467 15.7992C25.8467 16.4798 26.3962 17.0293 27.0768 17.0293C27.2384 17.0295 27.3984 16.9978 27.5478 16.9361C27.6971 16.8744 27.8328 16.7838 27.947 16.6695C28.0613 16.5552 28.1519 16.4195 28.2136 16.2702C28.2754 16.1209 28.3071 15.9608 28.3069 15.7992C28.3069 15.1187 27.7573 14.5691 27.0768 14.5691C26.3962 14.5691 25.8467 15.1187 25.8467 15.7992Z" fill="white"/>
</svg>
