<svg width="44" height="43" viewBox="0 0 44 43" fill="none" xmlns="http://www.w3.org/2000/svg">
<path fill-rule="evenodd" clip-rule="evenodd" d="M21.9116 42.5641C33.6653 42.5641 43.1936 33.0358 43.1936 21.282C43.1936 9.5283 33.6653 0 21.9116 0C10.1578 0 0.629517 9.5283 0.629517 21.282C0.629517 33.0358 10.1578 42.5641 21.9116 42.5641ZM31.1127 14.6094C32.1057 14.4899 33.0503 14.2254 33.9297 13.8339L33.9276 13.8371C33.2693 14.8262 32.4409 15.6896 31.4813 16.3869C31.4907 16.5985 31.496 16.8122 31.496 17.0238C31.496 23.537 26.5624 31.0468 17.5376 31.0468C14.8716 31.0498 12.2611 30.2809 10.0187 28.8323C10.4073 28.8783 10.7983 28.9012 11.1897 28.9011C13.3989 28.9044 15.545 28.1609 17.2827 26.7904C16.2591 26.7715 15.2669 26.4315 14.4451 25.818C13.6233 25.2044 13.0131 24.3481 12.6998 23.3687C13.4352 23.5095 14.1928 23.4806 14.9154 23.2841C13.805 23.0587 12.8065 22.4542 12.0892 21.5733C11.3719 20.6924 10.98 19.5892 10.9801 18.4511V18.3876C11.6613 18.7681 12.4231 18.9795 13.2021 19.0044C12.5304 18.5538 11.9798 17.9435 11.5992 17.2277C11.2186 16.512 11.0197 15.7129 11.0201 14.9015C11.0201 14 11.2623 13.1536 11.6836 12.4236C12.9155 13.9462 14.4523 15.1916 16.1943 16.0789C17.9363 16.9662 19.8445 17.4756 21.7951 17.574C21.5482 16.5168 21.6556 15.4072 22.1007 14.4176C22.5457 13.428 23.3035 12.6137 24.2564 12.1012C25.2093 11.5886 26.3039 11.4064 27.3704 11.583C28.4369 11.7595 29.4155 12.2848 30.1544 13.0774C31.2531 12.8607 32.3067 12.4564 33.2694 11.8819C32.9039 13.024 32.1373 13.9935 31.1127 14.6094Z" fill="white"/>
</svg>
