<svg width="42" height="43" viewBox="0 0 42 43" fill="none" xmlns="http://www.w3.org/2000/svg">
<path fill-rule="evenodd" clip-rule="evenodd" d="M42 21.7168C42 33.314 32.5972 42.7168 21 42.7168C9.40275 42.7168 0 33.314 0 21.7168C0 10.1195 9.40275 0.716797 21 0.716797C32.5972 0.716797 42 10.1195 42 21.7168ZM21.7525 16.22C19.7103 17.0688 15.6275 18.8275 9.506 21.4945C8.512 21.89 7.9905 22.2768 7.94325 22.6548C7.86275 23.2953 8.66425 23.5473 9.75275 23.8885C9.9015 23.9358 10.0555 23.983 10.213 24.0355C11.2857 24.3838 12.7278 24.7915 13.4768 24.8073C14.1575 24.8213 14.917 24.5413 15.7553 23.9673C21.4743 20.105 24.4265 18.1538 24.612 18.1118C24.7432 18.082 24.9252 18.0435 25.0477 18.1538C25.1702 18.2623 25.158 18.4688 25.1458 18.5248C25.0653 18.8625 21.9258 21.7833 20.2983 23.2953C19.7908 23.766 19.432 24.1003 19.3585 24.1773C19.194 24.347 19.026 24.5098 18.865 24.6655C17.8675 25.6245 17.122 26.3455 18.907 27.5215C19.7645 28.0868 20.4505 28.554 21.1348 29.0195C21.882 29.5288 22.6275 30.0363 23.5935 30.6698C23.8385 30.8308 24.073 30.997 24.3022 31.1598C25.172 31.781 25.9543 32.3375 26.9202 32.25C27.4803 32.1975 28.0612 31.6708 28.3552 30.0975C29.05 26.377 30.4185 18.32 30.7352 14.9985C30.7545 14.7228 30.7428 14.4457 30.7002 14.1725C30.6748 13.9519 30.5674 13.7489 30.3993 13.6038C30.149 13.399 29.7605 13.3553 29.5855 13.3588C28.7962 13.3728 27.5853 13.7945 21.7525 16.22Z" fill="white"/>
</svg>
