<svg width="39" height="28" viewBox="0 0 39 28" fill="none" xmlns="http://www.w3.org/2000/svg">
<path d="M36.2143 0H2.78571C2.0469 0 1.33834 0.294999 0.815917 0.820101C0.293494 1.3452 0 2.05739 0 2.8V25.2C0 25.9426 0.293494 26.6548 0.815917 27.1799C1.33834 27.705 2.0469 28 2.78571 28H36.2143C36.9531 28 37.6617 27.705 38.1841 27.1799C38.7065 26.6548 39 25.9426 39 25.2V2.8C39 2.05739 38.7065 1.3452 38.1841 0.820101C37.6617 0.294999 36.9531 0 36.2143 0V0ZM33.15 2.8L19.5 12.292L5.85 2.8H33.15ZM2.78571 25.2V4.074L18.7061 15.148C18.9392 15.3106 19.2162 15.3977 19.5 15.3977C19.7838 15.3977 20.0608 15.3106 20.2939 15.148L36.2143 4.074V25.2H2.78571Z" fill="white"/>
</svg>
