<svg width="34" height="34" viewBox="0 0 34 34" fill="none" xmlns="http://www.w3.org/2000/svg">
<path fill-rule="evenodd" clip-rule="evenodd" d="M24.79 20.3745C24.3658 20.1634 22.2861 19.1463 21.8989 19.0046C21.5117 18.8644 21.2298 18.7949 20.9466 19.2171C20.6647 19.6364 19.8548 20.5856 19.6085 20.8661C19.3608 21.148 19.1145 21.182 18.6918 20.9724C18.269 20.7599 16.9053 20.3164 15.2896 18.8828C14.0327 17.7664 13.1829 16.388 12.9366 15.9659C12.6904 15.5451 12.9096 15.317 13.1217 15.1074C13.3124 14.9189 13.5445 14.6158 13.7565 14.3707C13.9686 14.1242 14.0384 13.9485 14.1793 13.6666C14.3217 13.3861 14.2505 13.141 14.1437 12.93C14.0384 12.7189 13.1929 10.6463 12.8398 9.80338C12.4968 8.98313 12.148 9.09504 11.8889 9.08088C11.6413 9.06954 11.3594 9.06671 11.0776 9.06671C10.7957 9.06671 10.3373 9.17154 9.95015 9.59371C9.56154 10.0145 8.46973 11.033 8.46973 13.1056C8.46973 15.1768 9.98432 17.1785 10.1964 17.4604C10.4085 17.7409 13.1786 21.9938 17.422 23.817C18.4327 24.2505 19.2199 24.5098 19.8334 24.7024C20.8469 25.024 21.7693 24.9787 22.4982 24.8696C23.3096 24.7492 25.0007 23.851 25.3537 22.8679C25.7053 21.8847 25.7053 21.0418 25.5999 20.8661C25.4946 20.6904 25.2127 20.5856 24.7886 20.3745H24.79ZM17.0718 30.8621H17.0662C14.5458 30.8625 12.0717 30.1883 9.90318 28.9099L9.39072 28.6068L4.06405 29.9979L5.48611 24.8299L5.15159 24.3001C3.74254 22.0679 2.99685 19.4845 3.0007 16.8484C3.00355 9.12763 9.31528 2.84614 17.0775 2.84614C20.8355 2.84614 24.3686 4.3053 27.0248 6.95163C28.335 8.25012 29.3734 9.79426 30.08 11.4947C30.7867 13.1952 31.1475 15.0182 31.1416 16.8584C31.1387 24.5792 24.827 30.8621 17.0718 30.8621V30.8621ZM29.0462 4.94138C27.4778 3.37019 25.6117 2.1244 23.5559 1.27619C21.5002 0.427981 19.2958 -0.00577467 17.0704 5.80514e-05C7.74091 5.80514e-05 0.145195 7.55796 0.142348 16.847C0.138025 19.8033 0.917257 22.7083 2.40142 25.2691L0 34L8.97364 31.6568C11.456 33.0028 14.2378 33.7081 17.0647 33.7082H17.0718C26.4014 33.7082 33.9971 26.1503 33.9999 16.8598C34.0068 14.6459 33.5725 12.4527 32.7222 10.4069C31.8719 8.36116 30.6225 6.5035 29.0462 4.94138" fill="white"/>
</svg>
