<svg width="42" height="43" viewBox="0 0 42 43" fill="none" xmlns="http://www.w3.org/2000/svg">
<path d="M21 0.716797C9.40188 0.716797 0 10.1187 0 21.7168C0 33.3149 9.40188 42.7168 21 42.7168C32.5981 42.7168 42 33.3149 42 21.7168C42 10.1187 32.5981 0.716797 21 0.716797ZM15.8594 30.4209H11.6069V16.7359H15.8594V30.4209ZM13.7069 15.0559C12.3637 15.0559 11.4953 14.1043 11.4953 12.9274C11.4953 11.7265 12.39 10.8034 13.7616 10.8034C15.1331 10.8034 15.9731 11.7265 15.9994 12.9274C15.9994 14.1043 15.1331 15.0559 13.7069 15.0559ZM31.3906 30.4209H27.1381V22.8368C27.1381 21.0715 26.5213 19.8727 24.9834 19.8727C23.8088 19.8727 23.1109 20.6843 22.8025 21.4652C22.6888 21.743 22.6603 22.1368 22.6603 22.5284V30.4187H18.4056V21.0999C18.4056 19.3915 18.3509 17.963 18.2941 16.7337H21.9888L22.1834 18.6346H22.2688C22.8288 17.7421 24.2003 16.4252 26.495 16.4252C29.2928 16.4252 31.3906 18.2999 31.3906 22.3293V30.4209Z" fill="white"/>
</svg>
