<svg width="43" height="43" viewBox="0 0 43 43" fill="none" xmlns="http://www.w3.org/2000/svg">
<path d="M25.0901 21.3515L20.0599 19.059C19.621 18.8599 19.2604 19.083 19.2604 19.5577V23.8759C19.2604 24.3505 19.621 24.5737 20.0599 24.3746L25.0878 22.0821C25.529 21.8809 25.529 21.5527 25.0901 21.3515ZM21.5 0.716797C9.62573 0.716797 0 10.1187 0 21.7168C0 33.3149 9.62573 42.7168 21.5 42.7168C33.3743 42.7168 43 33.3149 43 21.7168C43 10.1187 33.3743 0.716797 21.5 0.716797ZM21.5 30.248C10.4947 30.248 10.3021 29.279 10.3021 21.7168C10.3021 14.1546 10.4947 13.1855 21.5 13.1855C32.5053 13.1855 32.6979 14.1546 32.6979 21.7168C32.6979 29.279 32.5053 30.248 21.5 30.248Z" fill="white"/>
</svg>
